<mxfile host="app.diagrams.net" modified="2023-09-08T00:03:03.635Z" agent="Mozilla/5.0 (Windows NT 10.0; Win64; x64) AppleWebKit/537.36 (KHTML, like Gecko) Chrome/116.0.0.0 Safari/537.36" version="21.7.2" etag="5c3M2lz2HL_jFWENueC4" type="github">
  <diagram name="PÃ¡gina-1" id="jkbe1ze3S1wOpNnLTgAG">
    <mxGraphModel>
      <root>
        <mxCell id="0" />
        <mxCell id="1" parent="0" />
      </root>
    </mxGraphModel>
  </diagram>
</mxfile>
